<svg xmlns="http://www.w3.org/2000/svg" width="26" height="25" viewBox="0 0 26 25" fill="none">
<rect width="26" height="25" fill="#E7E7E7"/>
<g clip-path="url(#clip0_0_1)">
<rect x="-94" width="212" height="25" rx="12.5" fill="url(#paint0_linear_0_1)"/>
<g opacity="0.35">
<svg xmlns="http://www.w3.org/2000/svg" width="26" height="25" viewBox="0 0 26 25" fill="none">
  <rect width="26" height="25" fill="#E7E7E7" />
  <g clip-path="url(#clip0_0_1)">
    <rect x="-94" width="212" height="25" rx="12.5" fill="url(#paint0_linear_0_1)" />
    <g opacity="0.35">
      <path d="M25.8471 10.0761C25.7161 9.7278 25.508 9.43324 25.2473 9.22692C24.9865 9.0206 24.6839 8.91109 24.3749 8.91122H17.2542L20.9527 -0.29637C21.0764 -0.604612 21.1348 -0.9471 21.1224 -1.29134C21.1099 -1.63557 21.027 -1.97014 20.8815 -2.26328C20.7359 -2.55643 20.5326 -2.79844 20.2908 -2.96634C20.0491 -3.13424 19.7768 -3.22247 19.4999 -3.22266H9.74999C9.4603 -3.22267 9.17587 -3.12631 8.92616 -2.94355C8.67645 -2.76079 8.47054 -2.49827 8.32975 -2.18319L0.204815 16.0176C0.0672604 16.3255 -0.00330014 16.6727 0.000118575 17.0249C0.00353729 17.3771 0.0808168 17.7221 0.224306 18.0257C0.367796 18.3293 0.572519 18.581 0.818205 18.7559C1.06389 18.9308 1.34202 19.0228 1.62505 19.0228H9.34862L6.53902 34.7624C6.46033 35.2048 6.50331 35.6673 6.66106 36.0757C6.8188 36.484 7.08218 36.8147 7.40894 37.0145C7.7357 37.2143 8.10692 37.2718 8.46307 37.1777C8.81922 37.0836 9.13965 36.8434 9.37299 36.4956L25.6229 12.2278C25.8207 11.9327 25.9468 11.5736 25.9865 11.1925C26.0262 10.8115 25.9779 10.4242 25.8471 10.0761Z" fill="url(#paint1_linear_0_1)" />
    </g>
    <g opacity="0.5">
      <path d="M21.8942 11.2068C21.8035 10.9657 21.6594 10.7618 21.4789 10.6189C21.2983 10.4761 21.0888 10.4003 20.8749 10.4004H15.9452L18.5057 4.02589C18.5914 3.81249 18.6318 3.57538 18.6232 3.33707C18.6146 3.09875 18.5572 2.86713 18.4564 2.66418C18.3557 2.46123 18.2149 2.29369 18.0475 2.17745C17.8801 2.06121 17.6916 2.00013 17.4999 2H10.75C10.5494 1.99999 10.3525 2.0667 10.1797 2.19323C10.0068 2.31976 9.86422 2.5015 9.76675 2.71963L4.14179 15.3202C4.04656 15.5333 3.99772 15.7737 4.00008 16.0175C4.00245 16.2614 4.05595 16.5002 4.15529 16.7104C4.25463 16.9206 4.39636 17.0949 4.56645 17.2159C4.73654 17.337 4.92909 17.4007 5.12504 17.4007H10.4721L8.52701 28.2974C8.47254 28.6037 8.50229 28.9238 8.6115 29.2065C8.72071 29.4893 8.90305 29.7181 9.12927 29.8565C9.35549 29.9948 9.61249 30.0346 9.85905 29.9695C10.1056 29.9043 10.3275 29.738 10.489 29.4972L21.7389 12.6965C21.8758 12.4922 21.9632 12.2436 21.9907 11.9797C22.0181 11.7159 21.9847 11.4478 21.8942 11.2068Z" fill="url(#paint2_linear_0_1)" />
    </g>
  </g>
  <defs>
    <linearGradient id="paint0_linear_0_1" x1="-94" y1="12" x2="118" y2="12" gradientUnits="userSpaceOnUse">
      <stop stop-color="#FB8925" />
      <stop offset="1" stop-color="#E91C23" />
    </linearGradient>
    <linearGradient id="paint1_linear_0_1" x1="3.31992" y1="3.9424" x2="22.8988" y2="19.6746" gradientUnits="userSpaceOnUse">
      <stop stop-color="#FFDD00" />
      <stop offset="1" stop-color="#FEB100" />
    </linearGradient>
    <linearGradient id="paint2_linear_0_1" x1="6.2984" y1="6.96042" x2="19.853" y2="17.852" gradientUnits="userSpaceOnUse">
      <stop stop-color="#FFDD00" />
      <stop offset="1" stop-color="#FEB100" />
    </linearGradient>
    <clipPath id="clip0_0_1">
      <rect width="212" height="25" fill="white" transform="translate(-94)" />
    </clipPath>
  </defs>
</svg>