
<svg width="20" height="20" viewBox="0 0 20 20" fill="none" xmlns="http://www.w3.org/2000/svg">
<path d="M13.7499 5.62465H16.3086C16.4778 5.62465 16.6178 5.67674 16.7286 5.7809C16.8395 5.88506 16.9078 6.02174 16.9336 6.1909L17.3049 9.99965H16.0549L15.7424 6.87465H13.7499V8.74965C13.7499 8.93215 13.6914 9.08194 13.5743 9.19902C13.4571 9.31611 13.3074 9.37465 13.1249 9.37465C12.9424 9.37465 12.7926 9.31611 12.6755 9.19902C12.5584 9.08194 12.4999 8.93215 12.4999 8.74965V6.87465H7.49988V8.74965C7.49988 8.93215 7.44133 9.08194 7.32425 9.19902C7.20716 9.31611 7.05738 9.37465 6.87488 9.37465C6.69238 9.37465 6.54258 9.31611 6.4255 9.19902C6.30841 9.08194 6.24988 8.93215 6.24988 8.74965V6.87465H4.25738L3.26113 16.8747H9.99925V18.1247H2.558C2.3755 18.1247 2.22258 18.0563 2.09925 17.9197C1.97591 17.783 1.92716 17.6234 1.953 17.4409L3.06613 6.1909C3.09238 6.02174 3.1607 5.88506 3.27113 5.7809C3.38154 5.67674 3.52154 5.62465 3.69113 5.62465H6.24988V5.19465C6.27613 4.07465 6.6407 3.14361 7.34363 2.40152C8.04654 1.65944 8.93195 1.27527 9.99988 1.24902C11.0678 1.27527 11.9532 1.65944 12.6561 2.40152C13.359 3.14361 13.7236 4.07465 13.7499 5.19465V5.62465ZM12.4999 5.62465V5.19465C12.487 4.42631 12.2428 3.78819 11.7674 3.28027C11.292 2.77236 10.7028 2.51194 9.99988 2.49902C9.29654 2.51194 8.70738 2.77236 8.23238 3.28027C7.75738 3.78819 7.5132 4.42631 7.49988 5.19465V5.62465H12.4999ZM16.4255 14.9215C16.608 14.7524 16.8164 14.6969 17.0505 14.7553C17.2846 14.8137 17.4311 14.96 17.4899 15.1947C17.5486 15.4293 17.4933 15.6312 17.3236 15.8003L14.8236 18.3003C14.6933 18.4307 14.5434 18.4959 14.3743 18.4959C14.2051 18.4959 14.0553 18.4307 13.9249 18.3003L11.4249 15.8003C11.2686 15.6312 11.2199 15.4325 11.2786 15.2047C11.3374 14.9768 11.4807 14.8303 11.7086 14.7653C11.9365 14.7003 12.1415 14.7524 12.3236 14.9215L13.7493 16.3672V11.8747C13.7493 11.6922 13.8078 11.5424 13.9249 11.4253C14.042 11.3082 14.1918 11.2497 14.3743 11.2497C14.5568 11.2497 14.7065 11.3082 14.8236 11.4253C14.9408 11.5424 14.9993 11.6922 14.9993 11.8747V16.3672L16.4255 14.9215Z" fill="#807F83"/>
</svg>