<svg width="36" height="36" viewBox="0 0 36 36" fill="none" xmlns="http://www.w3.org/2000/svg">
<circle cx="18" cy="18" r="18" fill="#D01212"/>
<g clip-path="url(#clip0_359_496)">
<path d="M23.0513 18.9336H19.7902C18.8977 18.9336 18.1719 19.6594 18.1719 20.5519V23.0529C18.1719 23.9454 18.8977 24.6712 19.7902 24.6712H23.0513C23.9438 24.6712 24.6696 23.9454 24.6696 23.0529V20.5519C24.6696 19.6594 23.9438 18.9336 23.0513 18.9336ZM23.4927 23.0529C23.4927 23.2981 23.2916 23.4943 23.0513 23.4943H19.7902C19.545 23.4943 19.3488 23.2932 19.3488 23.0529V20.5519C19.3488 20.3067 19.5499 20.1105 19.7902 20.1105H23.0513C23.2965 20.1105 23.4927 20.3116 23.4927 20.5519V23.0529Z" fill="white"/>
<path d="M30 14.388C30 14.285 29.9755 14.1869 29.9215 14.0987L26.3514 7.8216C26.2485 7.64016 26.0523 7.52246 25.8414 7.52246H10.1537C9.94279 7.52246 9.74663 7.63525 9.64365 7.8216L6.07846 14.0987C6.02942 14.1869 6 14.285 6 14.388C6 15.7954 6.84839 17.0018 8.05966 17.5364V27.8886C8.05966 28.2123 8.32448 28.4771 8.64814 28.4771H11.8995C11.9044 28.4771 11.9093 28.4771 11.9142 28.4771H16.4749C16.4798 28.4771 16.4847 28.4771 16.4896 28.4771H27.347C27.6706 28.4771 27.9354 28.2123 27.9354 27.8886V17.6099C27.9354 17.5854 27.9354 17.5658 27.9305 17.5462C29.1467 17.0116 30 15.8004 30 14.388ZM10.4969 8.70432H25.4982L28.2885 13.6132H7.71148L10.4969 8.70432ZM23.0805 14.7852C22.8942 15.8445 21.9673 16.6487 20.8541 16.6487C19.7409 16.6487 18.8141 15.8445 18.6277 14.7852H23.0805ZM17.3772 14.7852C17.1908 15.8445 16.264 16.6487 15.1508 16.6487C14.0376 16.6487 13.1107 15.8445 12.9195 14.7852H17.3772ZM7.21618 14.7852H11.6739C11.4875 15.8445 10.5558 16.6487 9.44258 16.6487C8.32938 16.6536 7.40253 15.8445 7.21618 14.7852ZM15.8864 27.3001H12.5027V20.9495C12.5027 20.4885 12.8754 20.1109 13.3412 20.1109H15.0527C15.5137 20.1109 15.8913 20.4836 15.8913 20.9495V27.3001H15.8864ZM26.7585 27.3001H17.0633V20.9495C17.0633 19.8412 16.161 18.934 15.0478 18.934H13.3363C12.228 18.934 11.3208 19.8363 11.3208 20.9495V27.3051H9.23662V17.8257C9.30527 17.8306 9.37393 17.8306 9.44258 17.8306C10.6293 17.8306 11.6788 17.2274 12.2967 16.3104C12.9146 17.2274 13.964 17.8306 15.1508 17.8306C16.3376 17.8306 17.3821 17.2274 18.0049 16.3104C18.6228 17.2274 19.6723 17.8306 20.8541 17.8306C22.0409 17.8306 23.0854 17.2274 23.7033 16.3104C24.3212 17.2274 25.3707 17.8306 26.5574 17.8306C26.6261 17.8306 26.6898 17.8257 26.7585 17.8257V27.3001ZM26.5574 16.6536C25.4442 16.6536 24.5174 15.8494 24.331 14.7901H28.7887C28.5975 15.8445 27.6706 16.6536 26.5574 16.6536Z" fill="white"/>
</g>
<defs>
<clipPath id="clip0_359_496">
<rect width="24" height="24" fill="white" transform="translate(6 6)"/>
</clipPath>
</defs>
</svg>
