<svg width="41" height="41" viewBox="0 0 41 41" fill="none" xmlns="http://www.w3.org/2000/svg">
<circle cx="20.5" cy="20.5" r="20.5" fill="#E3E4E6"/>
<path d="M26.8471 25.7164C26.4443 24.5176 24.8389 23.7672 23.6943 23.2642C23.2459 23.0678 22.0045 22.7346 21.8553 22.17C21.8019 21.9666 21.8091 21.7748 21.8529 21.591C21.7839 21.6042 21.7139 21.612 21.6415 21.612H20.8957C20.3003 21.612 19.8165 21.1276 19.8165 20.5326C19.8165 19.938 20.3005 19.4546 20.8957 19.4546H21.6415C21.8879 19.4546 22.1215 19.538 22.3099 19.6868C22.5861 19.65 22.8525 19.591 23.1009 19.5136C23.4271 18.8302 23.6815 18.013 23.7385 17.3096C23.9819 14.3 22.1369 12.5392 19.4915 12.8436C17.5681 13.065 16.4191 14.4992 16.2949 16.3456C16.1693 18.2276 16.8671 19.6176 17.6083 20.6372C17.9329 21.083 18.2739 21.3696 18.2215 21.9068C18.1607 22.542 17.4815 22.719 16.9957 22.9142C16.4201 23.1454 15.8001 23.4962 15.5073 23.6584C14.4987 24.2154 13.3917 24.8862 13.1429 25.8038C12.5919 27.8374 14.4527 28.4534 15.9889 28.7378C17.3073 28.981 18.7939 29.0002 20.0167 29.0002C22.2285 29.0002 26.2057 28.9116 26.8471 27.249C27.0295 26.7772 26.9513 26.0254 26.8471 25.7164Z" fill="#808080"/>
<path d="M22.1133 20.2286C22.0121 20.0744 21.8391 19.972 21.6417 19.972H20.8959C20.5847 19.972 20.3337 20.2234 20.3337 20.533C20.3337 20.8438 20.5847 21.0956 20.8959 21.0956H21.6417C21.8595 21.0956 22.0443 20.9714 22.1375 20.7918C23.1773 20.71 24.0817 20.3924 24.7165 19.9234C24.8623 20.0174 25.0347 20.0724 25.2207 20.0724H25.2675C25.7859 20.0724 26.2051 19.6528 26.2051 19.1338V17.2602C26.2051 16.887 25.9863 16.565 25.6707 16.4154C25.5331 13.4068 23.0425 11 20.0001 11C16.9577 11 14.4667 13.4068 14.3297 16.4154C14.0135 16.5652 13.7949 16.887 13.7949 17.2602V19.1338C13.7949 19.6528 14.2145 20.0724 14.7317 20.0724H14.7791C15.2967 20.0724 15.7165 19.6528 15.7165 19.1338V17.2602C15.7165 16.8924 15.5039 16.5752 15.1949 16.4218C15.3287 13.8868 17.4323 11.8662 20.0001 11.8662C22.5669 11.8662 24.6715 13.8868 24.8047 16.4218C24.4961 16.5754 24.2837 16.8924 24.2837 17.2602V19.1338C24.2837 19.2582 24.3079 19.374 24.3505 19.4822C23.8041 19.8732 23.0087 20.1518 22.1133 20.2286Z" fill="#808080"/>
</svg>
