<svg xmlns="http://www.w3.org/2000/svg" width="20" height="20" viewBox="0 0 20 20" fill="none">
<g clip-path="url(#clip0_361_783)">
<path d="M19.8284 0.171628C19.6759 0.0192058 19.4521 -0.0372005 19.2457 0.0247136L1.32062 5.40225C0.530703 5.63921 0 6.35249 0 7.17745C0 7.99096 0.546289 8.71522 1.32855 8.93874L8.89844 11.1016L11.0612 18.6714C11.2848 19.4537 12.009 20 12.8229 20C13.6475 20 14.3608 19.4693 14.5978 18.6794L19.9753 0.754284C20.0372 0.547839 19.9808 0.32405 19.8284 0.171628ZM1.17188 7.17717C1.17188 6.87401 1.36695 6.61182 1.65734 6.52471L17.3564 1.81499L9.20187 9.96952L1.65047 7.81198C1.36871 7.73143 1.17188 7.47053 1.17188 7.17717ZM13.4753 18.3426C13.3882 18.633 13.126 18.8281 12.8225 18.8281C12.5295 18.8281 12.2686 18.6313 12.188 18.3495L10.0305 10.7981L18.185 2.64358L13.4753 18.3426Z" fill="#807F83"/>
</g>
<defs>
<clipPath id="clip0_361_783">
<rect width="20" height="20" fill="white"/>
</clipPath>
</defs>
</svg>